<?xml version="1.0" encoding="UTF-8"?>
<svg version="1.1" xmlns="http://www.w3.org/2000/svg" width="512" height="512">
<path d="M0 0 C10.63933523 8.03482596 17.91013513 17.43556349 20.6875 30.6875 C21.12019039 35.94222323 21.12854531 41.18133616 21.12890625 46.44921875 C21.14071283 47.96842192 21.1540849 49.48761364 21.16893005 51.00679016 C21.20490364 54.98757048 21.22524251 58.96824943 21.24047852 62.94915771 C21.26540536 69.29991044 21.30578617 75.65043893 21.36237907 82.0009861 C21.37839191 84.19136275 21.38245673 86.38151797 21.38539124 88.57194519 C21.47664843 106.49693633 23.70759992 121.92956979 34.6875 136.6875 C35.43 137.71875 36.1725 138.75 36.9375 139.8125 C40.12033327 143.14000751 43.55263039 145.54210747 47.3828125 148.07421875 C49.40525798 149.48993058 50.97943798 150.92500388 52.6875 152.6875 C46.83837375 152.81262118 40.99005392 152.90254541 35.13989258 152.9621582 C33.15668134 152.98705072 31.17355936 153.02097777 29.19067383 153.06469727 C10.7470595 153.46068292 -4.4653114 151.14734448 -18.84765625 138.44921875 C-22.9002157 134.52844985 -26.54709521 130.61713462 -29.3125 125.6875 C-29.3125 125.0275 -29.3125 124.3675 -29.3125 123.6875 C-29.9725 123.6875 -30.6325 123.6875 -31.3125 123.6875 C-31.4053125 124.52925781 -31.498125 125.37101563 -31.59375 126.23828125 C-32.41189788 130.1645018 -33.9132848 133.38489256 -35.8125 136.875 C-36.16707275 137.52919922 -36.52164551 138.18339844 -36.88696289 138.85742188 C-41.34126345 146.82550838 -46.20400046 154.04096776 -54.3125 158.5 C-57.069489 160.40831587 -58.14198903 161.82859175 -58.79736328 165.12988281 C-59.47631805 171.63680868 -59.4872083 178.1530751 -59.3125 184.6875 C-58.49217285 184.91945068 -57.6718457 185.15140137 -56.82666016 185.39038086 C-52.57901238 186.95823918 -48.96328652 189.13007183 -45.0859375 191.44140625 C-22.82990277 204.19982812 -5.25195866 210.03265845 20.4961853 208.83638 C21.34693634 208.7975621 22.19768738 208.7587442 23.07421875 208.71875 C23.90216949 208.67981125 24.73012024 208.6408725 25.5831604 208.60075378 C40.26553532 208.18828212 51.93786859 215.17040101 62.4375 224.9375 C72.5932253 235.52309727 77.19141448 249.22187442 77.0390625 263.6953125 C76.98878906 265.54769531 76.98878906 265.54769531 76.9375 267.4375 C76.91945313 268.71882813 76.90140625 270.00015625 76.8828125 271.3203125 C76.83619741 274.44352336 76.77078138 277.56508874 76.6875 280.6875 C77.44885254 280.96279541 78.21020508 281.23809082 78.99462891 281.52172852 C81.48208353 282.5985731 82.86927918 283.47485631 84.7734375 285.33984375 C85.30839844 285.86336426 85.84335937 286.38688477 86.39453125 286.92626953 C86.94496094 287.48685059 87.49539063 288.04743164 88.0625 288.625 C88.92294922 289.49680908 88.92294922 289.49680908 89.80078125 290.38623047 C98.12819414 299.03701511 103.89186735 309.30060204 107.6875 320.6875 C108.01560782 310.67229308 108.26246322 300.65841509 108.41287041 290.63887787 C108.48515861 285.98319838 108.58272171 281.33126009 108.74365234 276.67773438 C109.49960264 254.21885001 109.53041355 237.55947437 95.39025879 218.98254395 C93.02920187 215.8002204 91.15345049 212.4354703 89.29296875 208.9453125 C88.71095703 207.90375 88.12894531 206.8621875 87.52929688 205.7890625 C86.98337891 204.80679688 86.43746094 203.82453125 85.875 202.8125 C85.27880859 201.74515625 84.68261719 200.6778125 84.06835938 199.578125 C79.86203031 192.03838807 77.80294061 187.49571816 78.6875 178.6875 C81.02781489 173.73683389 83.97571899 171.36718588 88.6875 168.6875 C99.60846252 166.89210367 109.02413588 169.29814109 118.1484375 175.30859375 C125.0136298 180.75622928 128.82113989 188.01323883 132.6875 195.6875 C133.27273438 196.83089844 133.85796875 197.97429687 134.4609375 199.15234375 C141.65862407 213.88968842 147.10652312 229.32608914 151 245.25 C151.23017822 246.18054199 151.46035645 247.11108398 151.69750977 248.06982422 C155.66620974 265.18748066 157.17030377 282.2553153 157.19140625 299.78515625 C157.20108818 301.72179873 157.21118339 303.65843919 157.22166443 305.59507751 C157.23941626 309.60925388 157.24520597 313.62323846 157.2434082 317.63745117 C157.24310115 322.75130864 157.28437731 327.86393702 157.33572483 332.97750187 C157.36921552 336.95921899 157.37516237 340.94063996 157.37357903 344.92248344 C157.37708738 346.80775707 157.39017588 348.69304102 157.41357613 350.57817268 C157.55707866 363.30703787 156.73812413 372.60384248 148.125 382.6875 C147.320625 383.3475 146.51625 384.0075 145.6875 384.6875 C144.945 385.368125 144.2025 386.04875 143.4375 386.75 C134.35887153 393.14630642 125.55077355 393.92306894 114.6875 392.6875 C103.46618206 390.24996435 95.95661766 381.10764952 88.16015625 373.27368164 C87.34944168 372.4631131 86.53872711 371.65254456 85.70344543 370.81741333 C83.04991698 368.16319354 80.39993867 365.50545961 77.75 362.84765625 C75.90077234 360.99656164 74.05132237 359.14568908 72.20166016 357.29502869 C67.84728976 352.93756458 63.4954722 348.57756035 59.14459229 344.21661133 C54.18640056 339.24719722 49.22532961 334.2806617 44.26402855 329.31435215 C34.06867181 319.10857547 23.8768906 308.89923321 13.6875 298.6875 C10.5770209 306.3362929 10.5770209 306.3362929 7.81225586 314.11450195 C7.34673561 315.52195427 7.34673561 315.52195427 6.87181091 316.95783997 C6.55188675 317.93726059 6.23196259 318.91668121 5.90234375 319.92578125 C5.55998184 320.96840622 5.21761993 322.01103119 4.86488342 323.08525085 C4.14641868 325.27722355 3.42968127 327.46976311 2.71459961 329.6628418 C1.63071779 332.98248792 0.53733351 336.29890255 -0.55664062 339.61523438 C-5.43358339 354.47505698 -9.89311328 368.13664937 -9.75 383.9375 C-9.74315186 385.1119165 -9.73630371 386.28633301 -9.72924805 387.49633789 C-9.09187935 422.25083539 11.00651852 446.47953505 34.703125 469.640625 C36.6875 471.6875 36.6875 471.6875 36.6875 472.6875 C-42.5125 472.6875 -121.7125 472.6875 -203.3125 472.6875 C-199.31686686 468.02592801 -195.37788015 463.68603669 -191 459.4375 C-170.05494845 438.74314442 -157.24821722 414.67761456 -157 384.875 C-156.97099609 383.75673828 -156.94199219 382.63847656 -156.91210938 381.48632812 C-156.76877304 362.04771591 -164.40532237 343.77983023 -170.5625 325.625 C-171.41302954 323.10143743 -172.26112419 320.57706475 -173.109375 318.05273438 C-175.16905019 311.928258 -177.23730087 305.80673259 -179.3125 299.6875 C-181.4089768 299.47117629 -181.4089768 299.47117629 -182.91057777 301.05065536 C-183.5472859 301.69440235 -184.18399403 302.33814934 -184.83999634 303.00140381 C-185.57162994 303.73606873 -186.30326355 304.47073364 -187.05706787 305.22766113 C-187.86017395 306.04424194 -188.66328003 306.86082275 -189.49072266 307.70214844 C-190.33647858 308.55403748 -191.1822345 309.40592651 -192.05361938 310.28363037 C-193.89680856 312.14116732 -195.73811187 314.00038628 -197.57667923 315.86248016 C-200.487955 318.81030001 -203.40787557 321.74945152 -206.32943726 324.68707275 C-214.63745432 333.04341589 -222.93383688 341.41125201 -231.22119141 349.78808594 C-235.79543181 354.41156064 -240.37693884 359.02771198 -244.96623266 363.63624597 C-247.86760079 366.55064982 -250.75974527 369.47380983 -253.64525914 372.4039073 C-255.87467154 374.6624627 -258.11732475 376.90781014 -260.35791016 379.15527344 C-261.14887085 379.96375732 -261.93983154 380.77224121 -262.75476074 381.60522461 C-271.45240128 390.27255815 -279.45087772 393.02900004 -291.59472656 393.1472168 C-300.26111383 392.97488434 -306.76245074 389.71983375 -313.3125 384.125 C-313.9725 383.320625 -314.6325 382.51625 -315.3125 381.6875 C-316.3334375 380.57375 -316.3334375 380.57375 -317.375 379.4375 C-324.41300234 369.44807732 -323.88625351 359.89018122 -323.80859375 348.078125 C-323.80874907 346.14589382 -323.81024357 344.21366232 -323.81300354 342.28143311 C-323.81438505 338.23321736 -323.80188482 334.18535688 -323.77905273 330.13720703 C-323.7508982 325.01076123 -323.7533462 319.88491521 -323.76614285 314.75842667 C-323.77319025 310.76345941 -323.76520538 306.76862435 -323.75288582 302.77367401 C-323.74844229 300.88751487 -323.74797055 299.00134114 -323.75195122 297.11518097 C-323.7716649 279.53324662 -321.85604646 262.342777 -317.625 245.25 C-317.36936279 244.21053223 -317.11372559 243.17106445 -316.8503418 242.10009766 C-312.97662568 226.90312255 -307.39443036 212.56363923 -300.75 198.375 C-300.31534424 197.43833496 -299.88068848 196.50166992 -299.43286133 195.53662109 C-293.67184395 183.62429965 -285.92285425 174.06620436 -273.23046875 169.3828125 C-266.25756209 167.72126312 -258.36910833 166.95686715 -252.0078125 170.55859375 C-248.20287252 173.5639449 -245.67982249 176.10353977 -244.97363281 181.07128906 C-244.7398716 188.65890311 -246.57575701 193.43515426 -250.4375 199.875 C-250.96722412 200.80046631 -251.49694824 201.72593262 -252.04272461 202.67944336 C-253.7768258 205.6957865 -255.54408632 208.69116563 -257.3125 211.6875 C-258.58397487 213.88168737 -259.85348044 216.07701699 -261.12109375 218.2734375 C-270.75024505 234.91428731 -270.75024505 234.91428731 -272.88092041 237.84439087 C-274.70715207 241.47127683 -274.7116526 244.63389301 -274.65307617 248.59887695 C-274.65351425 249.37989273 -274.65395233 250.16090851 -274.65440369 250.96559143 C-274.65232092 253.53591286 -274.62901454 256.10557438 -274.60546875 258.67578125 C-274.59987096 260.46225122 -274.59560173 262.2487258 -274.59260559 264.03520203 C-274.58117119 268.72885941 -274.55171612 273.42223669 -274.51849365 278.11578369 C-274.48776246 282.9085308 -274.47409374 287.70132332 -274.45898438 292.49414062 C-274.42684506 301.8920499 -274.3756657 311.28975163 -274.3125 320.6875 C-273.9834668 319.88070801 -273.65443359 319.07391602 -273.31542969 318.24267578 C-272.65655762 316.64141846 -272.65655762 316.64141846 -271.984375 315.0078125 C-271.5522168 313.95352051 -271.12005859 312.89922852 -270.67480469 311.81298828 C-265.25909302 299.38790929 -256.10024612 288.85243258 -245.3125 280.6875 C-244.6525 280.6875 -243.9925 280.6875 -243.3125 280.6875 C-243.33868408 279.91784912 -243.36486816 279.14819824 -243.3918457 278.35522461 C-244.05425481 255.92554916 -242.89127835 239.95343673 -227.0625 222.9375 C-222.29960402 218.36802112 -217.27132243 215.44337033 -211.3125 212.6875 C-210.49354248 212.30416504 -209.67458496 211.92083008 -208.83081055 211.52587891 C-202.38382047 208.95521712 -196.94661593 208.49997945 -190.1328125 208.88671875 C-158.96044759 210.49481916 -137.57086555 201.3990887 -111.00326538 185.55393982 C-109.3125 184.6875 -109.3125 184.6875 -107.3125 184.6875 C-107.3125 177.0975 -107.3125 169.5075 -107.3125 161.6875 C-108.9625 161.0275 -110.6125 160.3675 -112.3125 159.6875 C-128.39529723 148.67672266 -135.67228356 129.00600851 -139.3125 110.6875 C-139.68253581 108.35706169 -140.0049368 106.02739258 -140.3125 103.6875 C-143.7775 104.1825 -143.7775 104.1825 -147.3125 104.6875 C-147.41233628 98.65930865 -147.48442045 92.63161212 -147.53222656 86.6027832 C-147.5521826 84.55745038 -147.57935738 82.51217342 -147.61425781 80.46704102 C-147.8070815 68.86642785 -147.93245811 58.5290294 -143.3125 47.6875 C-142.92384766 46.7699292 -142.53519531 45.8523584 -142.13476562 44.90698242 C-135.35157339 29.68032207 -122.53909461 18.66399429 -107.30859375 12.46484375 C-101.38586579 10.26452271 -96.23488444 8.5622585 -89.8828125 8.5546875 C-88.83996094 8.55339844 -87.79710937 8.55210938 -86.72265625 8.55078125 C-85.09650391 8.55658203 -85.09650391 8.55658203 -83.4375 8.5625 C-82.36113281 8.55863281 -81.28476562 8.55476563 -80.17578125 8.55078125 C-71.9228817 8.56095745 -71.9228817 8.56095745 -67.7890625 9.41796875 C-65.24205612 9.97573753 -65.24205612 9.97573753 -63.328125 8.24609375 C-62.45414062 7.19615234 -62.45414062 7.19615234 -61.5625 6.125 C-46.04807687 -10.74619777 -18.75380005 -12.44646819 0 0 Z " fill="#C45C90" transform="translate(339.3125,23.3125)"/>
<path d="M0 0 C10.63933523 8.03482596 17.91013513 17.43556349 20.6875 30.6875 C21.12019039 35.94222323 21.12854531 41.18133616 21.12890625 46.44921875 C21.14071283 47.96842192 21.1540849 49.48761364 21.16893005 51.00679016 C21.20490364 54.98757048 21.22524251 58.96824943 21.24047852 62.94915771 C21.26540536 69.29991044 21.30578617 75.65043893 21.36237907 82.0009861 C21.37839191 84.19136275 21.38245673 86.38151797 21.38539124 88.57194519 C21.47664843 106.49693633 23.70759992 121.92956979 34.6875 136.6875 C35.43 137.71875 36.1725 138.75 36.9375 139.8125 C40.12033327 143.14000751 43.55263039 145.54210747 47.3828125 148.07421875 C49.40525798 149.48993058 50.97943798 150.92500388 52.6875 152.6875 C46.83837375 152.81262118 40.99005392 152.90254541 35.13989258 152.9621582 C33.15668134 152.98705072 31.17355936 153.02097777 29.19067383 153.06469727 C9.43823646 153.48878344 -6.34862038 150.42991621 -21.1875 136.25 C-22.58858201 134.75316059 -23.96583103 133.23347598 -25.3125 131.6875 C-25.87453125 131.05070313 -26.4365625 130.41390625 -27.015625 129.7578125 C-30.83602585 124.69893005 -30.57698604 120.47896528 -29.8046875 114.32421875 C-29.3125 111.6875 -29.3125 111.6875 -28.3125 108.6875 C-27.44122502 103.47390294 -26.65584198 97.77251944 -29.25146484 92.93896484 C-31.78299341 89.39399924 -34.79738174 86.30169129 -37.85058594 83.20605469 C-40.00872943 80.96429575 -41.93293747 78.55431836 -43.875 76.125 C-48.80204813 70.08517851 -48.80204813 70.08517851 -53.75 64.0625 C-54.57371094 63.05960937 -55.39742188 62.05671875 -56.24609375 61.0234375 C-58.09451002 58.64082381 -58.09451002 58.64082381 -60.3125 57.6875 C-60.415625 58.40292969 -60.51875 59.11835937 -60.625 59.85546875 C-63.11896413 70.12890055 -71.5395432 77.98606317 -80.12109375 83.48828125 C-90.43302253 89.18066788 -101.69619701 91.78568597 -113.01269531 94.79052734 C-118.41426797 96.25881515 -123.77032254 97.8701853 -129.125 99.5 C-130.09107178 99.79003906 -131.05714355 100.08007812 -132.05249023 100.37890625 C-133.39742554 100.78882812 -133.39742554 100.78882812 -134.76953125 101.20703125 C-135.9447937 101.56438354 -135.9447937 101.56438354 -137.14379883 101.92895508 C-139.33838508 102.63334334 -139.33838508 102.63334334 -141.34643555 103.7800293 C-143.3125 104.6875 -143.3125 104.6875 -147.3125 104.6875 C-147.41233628 98.65930865 -147.48442045 92.63161212 -147.53222656 86.6027832 C-147.5521826 84.55745038 -147.57935738 82.51217342 -147.61425781 80.46704102 C-147.8070815 68.86642785 -147.93245811 58.5290294 -143.3125 47.6875 C-142.92384766 46.7699292 -142.53519531 45.8523584 -142.13476562 44.90698242 C-135.35157339 29.68032207 -122.53909461 18.66399429 -107.30859375 12.46484375 C-101.38586579 10.26452271 -96.23488444 8.5622585 -89.8828125 8.5546875 C-88.83996094 8.55339844 -87.79710937 8.55210938 -86.72265625 8.55078125 C-85.09650391 8.55658203 -85.09650391 8.55658203 -83.4375 8.5625 C-82.36113281 8.55863281 -81.28476562 8.55476563 -80.17578125 8.55078125 C-71.9228817 8.56095745 -71.9228817 8.56095745 -67.7890625 9.41796875 C-65.24205612 9.97573753 -65.24205612 9.97573753 -63.328125 8.24609375 C-62.74546875 7.54613281 -62.1628125 6.84617187 -61.5625 6.125 C-46.04807687 -10.74619777 -18.75380005 -12.44646819 0 0 Z " fill="#916658" transform="translate(339.3125,23.3125)"/>
<path d="M0 0 C0.15855469 1.19753906 0.31710937 2.39507812 0.48046875 3.62890625 C3.39361047 24.44873239 9.80609872 43.13333393 24 59 C24.44359863 59.49709473 24.88719727 59.99418945 25.34423828 60.50634766 C31.66896747 67.55978166 38.24129824 74.33189037 45.015625 80.953125 C47 83 47 83 47 84 C-32.2 84 -111.4 84 -193 84 C-189.00436686 79.33842801 -185.06538015 74.99853669 -180.6875 70.75 C-160.13975833 50.44819881 -148.83571816 27.73030245 -146 -1 C-133.1270697 -4.83515872 -120.25512963 -7.81701799 -107 -10 C-106.30100586 -10.12004395 -105.60201172 -10.24008789 -104.88183594 -10.36376953 C-70.51930403 -16.04010112 -32.41471521 -12.55115235 0 0 Z " fill="#F1B8A0" transform="translate(329,412)"/>
<path d="M0 0 C1.2684375 -0.02835938 2.536875 -0.05671875 3.84375 -0.0859375 C9.24104987 0.59449133 12.24416136 3.0200162 15.875 6.9375 C18.46038437 12.40658233 18.61930485 18.1990102 16.59423828 23.94506836 C15.29558937 26.56226191 13.87754667 29.05685196 12.375 31.5625 C11.84527588 32.48796631 11.31555176 33.41343262 10.76977539 34.36694336 C9.0356742 37.3832865 7.26841368 40.37866563 5.5 43.375 C4.22852513 45.56918737 2.95901956 47.76451699 1.69140625 49.9609375 C-7.93774505 66.60178731 -7.93774505 66.60178731 -10.06842041 69.53189087 C-11.89465207 73.15877683 -11.8991526 76.32139301 -11.84057617 80.28637695 C-11.84101425 81.06739273 -11.84145233 81.84840851 -11.84190369 82.65309143 C-11.83982092 85.22341286 -11.81651454 87.79307438 -11.79296875 90.36328125 C-11.78737096 92.14975122 -11.78310173 93.9362258 -11.78010559 95.72270203 C-11.76867119 100.41635941 -11.73921612 105.10973669 -11.70599365 109.80328369 C-11.67526246 114.5960308 -11.66159374 119.38882332 -11.64648438 124.18164062 C-11.61434506 133.5795499 -11.5631657 142.97725163 -11.5 152.375 C-11.1709668 151.56820801 -10.84193359 150.76141602 -10.50292969 149.93017578 C-9.84405762 148.32891846 -9.84405762 148.32891846 -9.171875 146.6953125 C-8.7397168 145.64102051 -8.30755859 144.58672852 -7.86230469 143.50048828 C-2.44659302 131.07540929 6.71225388 120.53993258 17.5 112.375 C18.16 112.375 18.82 112.375 19.5 112.375 C19.47381592 111.60534912 19.44763184 110.83569824 19.4206543 110.04272461 C18.75824519 87.61304916 19.92122165 71.64093673 35.75 54.625 C40.51358748 50.0548577 45.54175751 47.13366237 51.5 44.375 C52.28560303 44.0025415 53.07120605 43.63008301 53.88061523 43.24633789 C64.31250893 39.0634049 75.22019119 39.94088426 86.25 40.125 C90.04065229 40.17290703 93.83136114 40.2156516 97.62207031 40.25878906 C99.50531101 40.28086357 101.38855084 40.30301313 103.27178955 40.32525635 C104.49305983 40.33962423 104.49305983 40.33962423 105.73900223 40.35428238 C106.61069613 40.3645376 106.61069613 40.3645376 107.5 40.375 C101.15664288 87.42582998 82.62387231 112.05754485 48.61332798 143.32784665 C42.83621389 148.6486082 37.19023607 154.10129098 31.54623985 159.56248033 C22.7616905 168.05480021 13.91555955 176.47887383 4.9609375 184.79174805 C4.10264847 185.59281479 3.24435944 186.39388153 2.36006165 187.21922302 C-6.30847047 195.21937496 -13.19150911 200.99055387 -25.4296875 200.75 C-32.69919447 199.86212129 -37.69777438 195.76794482 -42.30859375 190.31640625 C-45.67879328 184.82463849 -46.00453471 178.85886644 -46.46484375 172.6015625 C-46.58496071 171.06938583 -46.58496071 171.06938583 -46.70750427 169.5062561 C-48.11048191 150.99975336 -49.12645231 132.46271612 -50.23010254 113.93658447 C-50.55790834 108.43637444 -50.8882298 102.93632747 -51.22208977 97.43648148 C-51.37580094 94.88743391 -51.52580522 92.3381858 -51.67567444 89.78890991 C-51.77000031 88.22954159 -51.86450837 86.67018427 -51.95922852 85.11083984 C-51.99924484 84.41270676 -52.03926117 83.71457367 -52.08049011 82.99528503 C-52.26767844 79.9715219 -52.55670599 77.04069856 -53.06367493 74.05194092 C-53.56796755 70.9580056 -53.15245865 69.1983752 -52.1640625 66.2421875 C-51.84614746 65.28078857 -51.52823242 64.31938965 -51.20068359 63.32885742 C-50.84570801 62.31283447 -50.49073242 61.29681152 -50.125 60.25 C-49.7635791 59.19337158 -49.4021582 58.13674316 -49.02978516 57.0480957 C-45.46695998 46.8673953 -41.23407166 37.06103907 -36.5 27.375 C-35.9534375 26.25222656 -35.406875 25.12945312 -34.84375 23.97265625 C-29.22367835 13.07629393 -22.16056516 5.85352136 -10.66015625 1.234375 C-7.01281957 0.24251583 -3.7781358 0.03839569 0 0 Z " fill="#F1B8A0" transform="translate(76.5,191.625)"/>
<path d="M0 0 C13.14746618 4.97243913 19.59235023 14.08521612 25.671875 26.15234375 C26.54972656 27.86744141 26.54972656 27.86744141 27.4453125 29.6171875 C31.09239793 37.08463617 34.11725722 44.72878338 36.984375 52.52734375 C37.49097656 53.90019531 37.49097656 53.90019531 38.0078125 55.30078125 C38.32621094 56.18765625 38.64460937 57.07453125 38.97265625 57.98828125 C39.25278564 58.7673584 39.53291504 59.54643555 39.8215332 60.34912109 C42.09899888 67.85697665 42.87987073 73.93315394 41.92578125 81.7421875 C41.71888609 83.69343465 41.51617311 85.64512824 41.31689453 87.59716797 C41.20887512 88.64797546 41.10085571 89.69878296 40.98956299 90.78143311 C40.40730529 96.95962913 40.02766191 103.15098379 39.63671875 109.34375 C39.59458881 110.00632183 39.55245888 110.66889366 39.50905228 111.35154343 C39.29242788 114.75918731 39.0784287 118.16698456 38.86694336 121.57495117 C38.65278742 125.02588623 38.43451258 128.47654515 38.21484947 131.92713356 C38.04195221 134.64771466 37.87075555 137.3684007 37.70009232 140.08912277 C37.57528574 142.07675748 37.44955785 144.06433426 37.32382202 146.0519104 C36.96436185 151.85900298 36.63432508 157.6611322 36.43408203 163.47607422 C36.39940323 164.42941147 36.36472443 165.38274872 36.32899475 166.36497498 C36.27132958 168.0747837 36.22454308 169.7850204 36.19236755 171.49549866 C35.9054011 180.04008288 33.63164992 187.18352108 27.6796875 193.421875 C21.90894559 198.39549108 16.01868227 199.59256527 8.54296875 199.68359375 C1.27783891 198.33929762 -3.90566633 194.15995318 -8.94018555 188.99438477 C-9.54779724 188.38735718 -10.15540894 187.78032959 -10.78143311 187.15490723 C-12.76887871 185.16469637 -14.74180437 183.16073478 -16.71484375 181.15625 C-18.10302746 179.76059387 -19.49210593 178.36582721 -20.8820343 176.97190857 C-24.52709459 173.31163332 -28.15998994 169.6395152 -31.79040527 165.96472168 C-35.48127803 162.23294946 -39.18346508 158.51244035 -42.88476562 154.79101562 C-48.86310679 148.7775925 -54.83455487 142.7574281 -60.79682922 136.72807312 C-63.96396686 133.52608975 -67.14346308 130.33691964 -70.328125 127.15234375 C-71.111875 126.34796875 -71.895625 125.54359375 -72.703125 124.71484375 C-74.69921188 122.76628275 -76.68924748 120.99261208 -78.828125 119.21484375 C-82.10131275 116.45176318 -84.63694812 113.48090463 -87.328125 110.15234375 C-89.74808729 107.61138335 -92.12429246 105.31143256 -94.890625 103.15234375 C-97.45539962 101.04791329 -99.28821137 98.75499218 -101.328125 96.15234375 C-101.988125 95.82234375 -102.648125 95.49234375 -103.328125 95.15234375 C-104.13809204 92.90611267 -104.13809204 92.90611267 -104.93212891 89.89819336 C-105.38236923 88.21656349 -105.38236923 88.21656349 -105.84170532 86.5009613 C-106.15948944 85.28119095 -106.47727356 84.06142059 -106.8046875 82.8046875 C-107.13479828 81.56312393 -107.46490906 80.32156036 -107.80502319 79.04237366 C-108.68345616 75.73817496 -109.55215249 72.43149093 -110.41888428 69.12420654 C-111.3046694 65.7511797 -112.19958585 62.38057896 -113.09375 59.00976562 C-114.84751496 52.39297809 -116.59101151 45.77352168 -118.328125 39.15234375 C-112.33658163 39.02727139 -106.34582411 38.93732006 -100.35327148 38.87768555 C-98.32156104 38.85278517 -96.28993784 38.81885186 -94.25854492 38.77514648 C-74.14611485 38.35376207 -59.74553824 41.29312213 -44.578125 55.40234375 C-34.4223997 65.98794102 -29.82421052 79.68671817 -29.9765625 94.16015625 C-30.01007813 95.39507812 -30.04359375 96.63 -30.078125 97.90234375 C-30.09617187 99.18367188 -30.11421875 100.465 -30.1328125 101.78515625 C-30.17942759 104.90836711 -30.24484362 108.02993249 -30.328125 111.15234375 C-29.56677246 111.42763916 -28.80541992 111.70293457 -28.02099609 111.98657227 C-25.53354147 113.06341685 -24.14634582 113.93970006 -22.2421875 115.8046875 C-21.70722656 116.32820801 -21.17226563 116.85172852 -20.62109375 117.39111328 C-19.79544922 118.23198486 -19.79544922 118.23198486 -18.953125 119.08984375 C-18.37949219 119.6710498 -17.80585938 120.25225586 -17.21484375 120.85107422 C-8.88743086 129.50185886 -3.12375765 139.76544579 0.671875 151.15234375 C0.99998282 141.13713683 1.24683822 131.12325884 1.39724541 121.10372162 C1.46953361 116.44804213 1.56709671 111.79610384 1.72802734 107.14257812 C2.48397764 84.68369376 2.51478855 68.02431812 -11.62536621 49.4473877 C-13.98642313 46.26506415 -15.86217451 42.90031405 -17.72265625 39.41015625 C-18.30466797 38.36859375 -18.88667969 37.32703125 -19.48632812 36.25390625 C-20.03224609 35.27164063 -20.57816406 34.289375 -21.140625 33.27734375 C-21.73681641 32.21 -22.33300781 31.14265625 -22.94726562 30.04296875 C-27.15359469 22.50323182 -29.21268439 17.96056191 -28.328125 9.15234375 C-22.83404213 -2.46975462 -11.24955534 -2.86520365 0 0 Z " fill="#F1B8A0" transform="translate(446.328125,192.84765625)"/>
<path d="M0 0 C4.35716337 1.58348217 6.82307138 4.97929347 9.6875 8.4375 C10.21569336 9.06495117 10.74388672 9.69240234 11.28808594 10.33886719 C12.86678613 12.21936366 14.4351059 14.10800698 16 16 C16.82628906 16.99644531 17.65257812 17.99289063 18.50390625 19.01953125 C19.97896775 20.81269296 21.44043284 22.61714325 22.88671875 24.43359375 C24.97001339 27.03328936 24.97001339 27.03328936 27.33203125 29.41015625 C31.55666648 33.96033255 33.53991557 37.20471129 33.75 43.5 C32.43563662 63.71928998 25.82340918 83.67830621 11 98 C9.32317394 98.97688966 7.63620339 99.9366686 5.9375 100.875 C3.48578884 103.02104103 2.16233984 104.33572534 1.38085938 107.53344727 C1.30061523 108.91101196 1.30061523 108.91101196 1.21875 110.31640625 C1.15695557 111.31236816 1.09516113 112.30833008 1.03149414 113.33447266 C0.89338307 117.89393178 0.87808575 122.44017362 1 127 C1.78375 127.226875 2.5675 127.45375 3.375 127.6875 C6.48853335 128.8148138 9.28046006 130.08969295 12.2265625 131.58203125 C13.12197754 132.03425049 14.01739258 132.48646973 14.93994141 132.95239258 C15.61976074 133.29810303 16.29958008 133.64381348 17 134 C17.09284953 141.9801118 17.16384 149.95999636 17.20724869 157.94051552 C17.22808715 161.6465735 17.25633503 165.3522608 17.30175781 169.05810547 C17.34535112 172.63725786 17.36916523 176.21605464 17.37950897 179.79545212 C17.38687635 181.15818247 17.40126338 182.52089427 17.42292023 183.88347244 C17.62477292 197.11454271 17.62477292 197.11454271 13 202 C8.63420365 205.84605869 6.31280027 207.12065309 0.54394531 207.17700195 C-1.16858429 207.19625481 -1.16858429 207.19625481 -2.91571045 207.21589661 C-4.15524475 207.22328354 -5.39477905 207.23067047 -6.671875 207.23828125 C-7.94218567 207.246353 -9.21249634 207.25442474 -10.52130127 207.26274109 C-13.21475888 207.27659326 -15.90809362 207.28760594 -18.6015625 207.29516602 C-22.04268584 207.3062115 -25.48315911 207.34058823 -28.92405319 207.38033772 C-32.21492911 207.41286078 -35.50586286 207.41728827 -38.796875 207.42578125 C-40.02831238 207.44328934 -41.25974976 207.46079742 -42.52850342 207.47883606 C-53.16930492 207.45186689 -53.16930492 207.45186689 -58 203 C-62.02381634 198.43242469 -63.12575476 196.12284919 -63.11352539 190.08154297 C-63.11344986 188.84040741 -63.11337433 187.59927185 -63.11329651 186.32052612 C-63.1081895 184.96107951 -63.1029735 183.60163331 -63.09765625 182.2421875 C-63.09579142 180.85499116 -63.09436782 179.46779416 -63.09336853 178.08059692 C-63.08954848 174.42765488 -63.07972255 170.77475252 -63.06866455 167.12182617 C-63.05843944 163.39502499 -63.05386855 159.66821741 -63.04882812 155.94140625 C-63.03809983 148.62758606 -63.02102954 141.31379859 -63 134 C-60.71070947 132.82845707 -58.41881638 131.66261926 -56.125 130.5 C-55.47402344 130.16613281 -54.82304687 129.83226562 -54.15234375 129.48828125 C-49.2265625 127 -49.2265625 127 -47 127 C-47 119.41 -47 111.82 -47 104 C-48.65 103.34 -50.3 102.68 -52 102 C-66.99847491 91.73158305 -74.17216437 73.82296746 -78.37109375 56.8515625 C-78.8649536 53.82705433 -79.0672578 51.28807164 -79.03930664 48.25927734 C-79.03363174 47.45871918 -79.02795685 46.65816101 -79.02210999 45.83334351 C-79.01481369 45.22834015 -79.0075174 44.62333679 -79 44 C-77.74453369 43.62190186 -76.48906738 43.24380371 -75.19555664 42.85424805 C-70.50423854 41.44102251 -65.81344536 40.02606143 -61.12280273 38.6105957 C-59.09885535 38.00010148 -57.07476899 37.39006783 -55.05053711 36.78051758 C-52.12836975 35.9004854 -49.2067187 35.01875676 -46.28515625 34.13671875 C-45.39103531 33.86784348 -44.49691437 33.5989682 -43.57569885 33.32194519 C-25.33747483 27.80851041 -11.57528966 22.54607133 -2 5 C-1.30280526 3.34587131 -0.62562392 1.68250317 0 0 Z " fill="#F1B8A0" transform="translate(279,81)"/>
<path d="M0 0 C11.97421094 7.94700995 20.31099386 18.15638431 23.30078125 32.421875 C23.73347164 37.67659823 23.74182656 42.91571116 23.7421875 48.18359375 C23.75399408 49.70279692 23.76736615 51.22198864 23.7822113 52.74116516 C23.81818489 56.72194548 23.83852376 60.70262443 23.85375977 64.68353271 C23.87868661 71.03428544 23.91906742 77.38481393 23.97566032 83.7353611 C23.99167316 85.92573775 23.99573798 88.11589297 23.99867249 90.30632019 C24.08992968 108.23131133 26.32088117 123.66394479 37.30078125 138.421875 C38.04328125 139.453125 38.78578125 140.484375 39.55078125 141.546875 C42.73361452 144.87438251 46.16591164 147.27648247 49.99609375 149.80859375 C52.01853923 151.22430558 53.59271923 152.65937888 55.30078125 154.421875 C49.451655 154.54699618 43.60333517 154.63692041 37.75317383 154.6965332 C35.76996259 154.72142572 33.78684061 154.75535277 31.80395508 154.79907227 C12.05151771 155.22315844 -3.73533913 152.16429121 -18.57421875 137.984375 C-19.97530076 136.48753559 -21.35254978 134.96785098 -22.69921875 133.421875 C-23.26125 132.78507813 -23.82328125 132.14828125 -24.40234375 131.4921875 C-28.2227446 126.43330505 -27.96370479 122.21334028 -27.19140625 116.05859375 C-26.69921875 113.421875 -26.69921875 113.421875 -25.69921875 110.421875 C-25.47470417 108.19613165 -25.29138997 105.96605981 -25.13671875 103.734375 C-25.05292969 102.55488281 -24.96914063 101.37539062 -24.8828125 100.16015625 C-24.79193359 98.80470703 -24.79193359 98.80470703 -24.69921875 97.421875 C-22.36588542 99.75520833 -20.03255208 102.08854167 -17.69921875 104.421875 C-17.62389106 99.56961288 -17.57007411 94.71770637 -17.53442383 89.86499023 C-17.51952992 88.22137509 -17.49920786 86.57779826 -17.47290039 84.93432617 C-17.26066838 71.31402475 -17.64024426 57.55999851 -24.19921875 45.234375 C-24.54106201 44.57638916 -24.88290527 43.91840332 -25.23510742 43.24047852 C-33.59449798 27.94737302 -46.65248537 19.49891015 -62.69921875 13.421875 C-59.37810517 5.6553125 -51.59041139 0.96207887 -44.25390625 -2.5703125 C-30.26218335 -8.089983 -13.07329855 -7.64343359 0 0 Z " fill="#785349" transform="translate(336.69921875,21.578125)"/>
<path d="M0 0 C2.51585814 2.51585814 2.59854851 4.09117381 3.25390625 7.56640625 C3.57584961 9.25540039 3.57584961 9.25540039 3.90429688 10.97851562 C4.12150391 12.16123047 4.33871094 13.34394531 4.5625 14.5625 C4.78357422 15.71814453 5.00464844 16.87378906 5.23242188 18.06445312 C6.98854742 27.40746544 8.13775395 36.49328844 8.20874023 46.0012207 C8.21852402 46.85132721 8.2283078 47.70143372 8.23838806 48.57730103 C8.26803604 51.36011246 8.28963696 54.14287719 8.30859375 56.92578125 C8.31516558 57.88444784 8.3217374 58.84311443 8.32850838 59.83083153 C8.36096195 64.90209861 8.38545088 69.97334586 8.4050293 75.04467773 C8.42284734 79.21816716 8.45769663 83.39098164 8.50756836 87.56420898 C8.56803017 92.63214047 8.59853831 97.69944627 8.60820198 102.76772118 C8.61670823 104.68651834 8.63540541 106.60530093 8.6649456 108.52388954 C8.85272501 121.40916656 8.15992214 130.78838384 -0.5625 141 C-1.366875 141.66 -2.17125 142.32 -3 143 C-3.7425 143.680625 -4.485 144.36125 -5.25 145.0625 C-14.32862847 151.45880642 -23.13672645 152.23556894 -34 151 C-45.15251287 148.57741044 -52.67644254 139.46667357 -60.53979492 131.7800293 C-61.75844994 130.59291603 -61.75844994 130.59291603 -63.00172424 129.38182068 C-70.44817238 122.11753815 -77.85806948 114.81594146 -85.2547102 107.50097942 C-90.20936402 102.60225178 -95.17561015 97.71661863 -100.17358398 92.86206055 C-105.03065064 88.14435436 -109.85209946 83.3925146 -114.65383339 78.61850929 C-116.47768263 76.81600201 -118.31271454 75.02473097 -120.15941429 73.24564171 C-131.59429703 62.21064836 -138.44362523 53.82785503 -141 38 C-141.59161372 35.86546417 -142.2088657 33.73746659 -142.875 31.625 C-143.8785355 28.29748756 -144.1069596 26.3208788 -143 23 C-141.62437146 24.28965176 -140.29233607 25.62689293 -139 27 C-139 27.66 -139 28.32 -139 29 C-138.4225 29.2475 -137.845 29.495 -137.25 29.75 C-134.67060021 31.18299988 -132.93878408 32.78424676 -131 35 C-131 35.66 -131 36.32 -131 37 C-130.401875 37.268125 -129.80375 37.53625 -129.1875 37.8125 C-127.00152146 38.99917406 -125.58667406 40.09599113 -124 42 C-124 42.66 -124 43.32 -124 44 C-123.4225 44.2475 -122.845 44.495 -122.25 44.75 C-119.67060021 46.18299988 -117.93878408 47.78424676 -116 50 C-116 50.66 -116 51.32 -116 52 C-115.401875 52.268125 -114.80375 52.53625 -114.1875 52.8125 C-112.00152146 53.99917406 -110.58667406 55.09599113 -109 57 C-109 57.66 -109 58.32 -109 59 C-108.46223938 59.21113434 -107.92447876 59.42226868 -107.37042236 59.63980103 C-104.10454362 61.51383199 -101.6813206 64.09043788 -99.07324219 66.76318359 C-98.49054062 67.35201828 -97.90783905 67.94085297 -97.30747986 68.54753113 C-96.04436946 69.82493144 -94.78350991 71.10456049 -93.52465057 72.38615036 C-91.52807884 74.41756164 -89.52444678 76.44175317 -87.51861572 78.46401978 C-81.81714655 84.21433377 -76.12684664 89.97560294 -70.44580078 95.74609375 C-66.96791439 99.2777284 -63.48020044 102.79941084 -59.98636627 106.31526566 C-58.66055697 107.65344608 -57.33854866 108.99540396 -56.0205307 110.341259 C-54.17097393 112.22951465 -52.30917327 114.10487799 -50.44433594 115.97802734 C-49.90898727 116.5308992 -49.37363861 117.08377106 -48.82206726 117.65339661 C-43.82343241 122.62688464 -37.89208514 126.57368013 -30.625 126.5625 C-23.75396102 126.26707391 -18.0325328 124.00114012 -13.11328125 119.1328125 C-8.27405952 113.11014914 -6.83726346 106.79473355 -6.4375 99.13208008 C-6.40140625 98.48353058 -6.3653125 97.83498108 -6.328125 97.16677856 C-6.21126118 95.0346907 -6.10568512 92.90219989 -6 90.76953125 C-5.91874238 89.2547343 -5.83669502 87.73997954 -5.75390625 86.2252655 C-5.53732981 82.23002967 -5.32995628 78.23437222 -5.125 74.23852539 C-4.76053817 67.16497624 -4.37979181 60.09227091 -4 53.01953125 C-3.9386235 51.87128057 -3.9386235 51.87128057 -3.87600708 50.69983292 C-3.31145428 40.17258257 -2.68040129 29.65302244 -1.9375 19.13671875 C-1.85822266 18.00176468 -1.77894531 16.86681061 -1.69726562 15.69746399 C-1.3122855 10.42509143 -0.84047778 5.21998067 0 0 Z " fill="#D18E79" transform="translate(488,265)"/>
<path d="M0 0 C1.54691539 2.77807278 2.27359107 4.91350027 2.45483398 8.08276367 C2.50517792 8.88709335 2.55552185 9.69142303 2.60739136 10.52012634 C2.65316315 11.39391434 2.69893494 12.26770233 2.74609375 13.16796875 C2.80169464 14.09537369 2.85729553 15.02277863 2.9145813 15.97828674 C3.03413063 17.99201016 3.14960939 20.00597841 3.26150513 22.0201416 C3.43912467 25.21673908 3.62727823 28.41256458 3.81811523 31.60839844 C4.15337898 37.25209641 4.47927804 42.89628981 4.80212402 48.54071045 C5.31725082 57.5462137 5.83985249 66.55123817 6.37503052 75.55557251 C6.55886403 78.68804404 6.73465746 81.82089592 6.90991211 84.95385742 C6.96875056 104.61082434 6.96875056 104.61082434 16 121 C21.64771291 125.57408827 26.95044441 126.78028857 34.16015625 126.3984375 C50.66761337 124.08239812 66.13042275 101.99890917 77.203125 90.89453125 C79.13603479 88.95919071 81.06970549 87.0246111 83.00335693 85.0900116 C87.54176202 80.54852274 92.07761647 76.00449556 96.61251426 71.45950478 C101.78359634 66.27716874 106.95758533 61.09773895 112.13179636 55.91852725 C122.75772292 45.28220336 133.3800719 34.64231337 144 24 C145.78543251 29.35629753 143.35425322 34.84072847 142 40.1875 C141.58041016 41.99831055 141.58041016 41.99831055 141.15234375 43.84570312 C140.85457031 45.02455078 140.55679688 46.20339844 140.25 47.41796875 C139.98703125 48.48813232 139.7240625 49.5582959 139.453125 50.66088867 C136.04385188 58.49499963 128.58177949 64.57378809 122.62133789 70.55566406 C121.81386612 71.36970703 121.00639435 72.18375 120.17445374 73.02246094 C117.52673988 75.68973485 114.87515556 78.35311041 112.22265625 81.015625 C111.31232573 81.93003105 110.4019952 82.8444371 109.4640789 83.78655243 C105.14693226 88.12234494 100.82776424 92.45610229 96.5054751 96.7867682 C91.53798656 101.76404824 86.57891249 106.74952134 81.6267224 111.7420218 C77.31637068 116.08623832 72.99502488 120.41936785 68.66973686 124.74871063 C66.83919 126.58412229 65.01201729 128.42290575 63.18834114 130.26514435 C60.63758899 132.84025728 58.07448268 135.40243479 55.50805664 137.96191406 C54.76235413 138.72042664 54.01665161 139.47893921 53.24835205 140.26043701 C44.59396463 148.82990565 36.7495927 151.34259061 24.71777344 151.4597168 C16.05138617 151.28738434 9.55004926 148.03233375 3 142.4375 C2.34 141.633125 1.68 140.82875 1 140 C-0.0209375 138.88625 -0.0209375 138.88625 -1.0625 137.75 C-8.10050234 127.76057732 -7.57375351 118.20268122 -7.49609375 106.390625 C-7.49624907 104.45839382 -7.49774357 102.52616232 -7.50050354 100.59393311 C-7.50188505 96.54571736 -7.48938482 92.49785688 -7.46655273 88.44970703 C-7.4383982 83.32326123 -7.4408462 78.19741521 -7.45364285 73.07092667 C-7.46069025 69.07595941 -7.45270538 65.08112435 -7.44038582 61.08617401 C-7.43594229 59.20001487 -7.43547055 57.31384114 -7.43945122 55.42768097 C-7.4607316 36.44846314 -5.09569543 18.28759729 0 0 Z " fill="#D08D78" transform="translate(23,265)"/>
<path d="M0 0 C-0.33 7.59 -0.66 15.18 -1 23 C-4.6196875 22.1028125 -4.6196875 22.1028125 -8.3125 21.1875 C-9.04766846 21.00598389 -9.78283691 20.82446777 -10.5402832 20.63745117 C-14.47885383 19.65676086 -18.38808092 18.60761284 -22.29296875 17.5 C-51.45782045 9.54274161 -83.38006438 9.8166623 -113 15 C-114.49859734 15.24280909 -115.99729109 15.48502405 -117.49609375 15.7265625 C-124.94943183 16.98086268 -132.07725716 18.77872614 -139.23046875 21.23046875 C-142 22 -142 22 -147 22 C-147.33 14.74 -147.66 7.48 -148 0 C-136.98113674 -4.0595812 -126.07177981 -7.02596091 -114.5625 -9.3125 C-112.66250244 -9.69365967 -112.66250244 -9.69365967 -110.72412109 -10.08251953 C-73.399894 -17.28870644 -35.56316754 -12.72787049 0 0 Z " fill="#D08D78" transform="translate(330,389)"/>
<path d="M0 0 C13.14746618 4.97243913 19.59235023 14.08521612 25.671875 26.15234375 C26.54972656 27.86744141 26.54972656 27.86744141 27.4453125 29.6171875 C31.10244503 37.10520772 34.15161594 44.77732244 37.046875 52.58984375 C37.56604492 53.97526367 37.56604492 53.97526367 38.09570312 55.38867188 C38.57813477 56.72381836 38.57813477 56.72381836 39.0703125 58.0859375 C39.49836182 59.26240845 39.49836182 59.26240845 39.93505859 60.46264648 C40.90751294 64.01252375 41.27461346 67.49331762 41.671875 71.15234375 C6.63514159 74.92025386 6.63514159 74.92025386 -2.41845703 69.19970703 C-7.22527278 63.85013596 -9.57826055 57.38493431 -11.95605469 50.68310547 C-14.35423927 44.51183403 -17.79762395 38.9808942 -21.140625 33.27734375 C-22.31978412 31.17913185 -23.4934784 29.07783372 -24.66015625 26.97265625 C-25.39842651 25.64645264 -25.39842651 25.64645264 -26.15161133 24.29345703 C-28.90806142 19.27704963 -28.89876365 14.83461878 -28.328125 9.15234375 C-22.83404213 -2.46975462 -11.24955534 -2.86520365 0 0 Z " fill="#9850A8" transform="translate(446.328125,192.84765625)"/>
<path d="M0 0 C3.80493998 3.00535115 6.32799001 5.54494602 7.03417969 10.51269531 C7.2679409 18.10030936 5.43205549 22.87656051 1.5703125 29.31640625 C1.04058838 30.24187256 0.51086426 31.16733887 -0.03491211 32.12084961 C-1.7690133 35.13719275 -3.53627382 38.13257188 -5.3046875 41.12890625 C-6.57616237 43.32309362 -7.84566794 45.51842324 -9.11328125 47.71484375 C-12.48190764 53.5364166 -15.87531382 59.34289545 -19.3046875 65.12890625 C-19.66916992 66.04623535 -20.03365234 66.96356445 -20.40917969 67.90869141 C-22.3046875 70.12890625 -22.3046875 70.12890625 -24.15293884 70.55644226 C-26.63968703 70.71086221 -29.07587395 70.69011243 -31.56640625 70.6171875 C-32.92509575 70.60657539 -32.92509575 70.60657539 -34.31123352 70.5957489 C-37.20572333 70.56774853 -40.098282 70.50500066 -42.9921875 70.44140625 C-44.95374811 70.41633063 -46.91533904 70.39351618 -48.87695312 70.37304688 C-53.68694255 70.31790341 -58.49548759 70.23159267 -63.3046875 70.12890625 C-62.59068984 63.66326081 -61.18991136 58.16730297 -58.9296875 52.06640625 C-58.58172119 51.12192627 -58.23375488 50.17744629 -57.87524414 49.2043457 C-55.12709664 41.93518743 -52.0499977 34.84736478 -48.7421875 27.81640625 C-48.30793457 26.88111084 -47.87368164 25.94581543 -47.42626953 24.98217773 C-41.66763369 13.06764799 -33.91556553 3.50780388 -21.22265625 -1.17578125 C-14.24974959 -2.83733063 -6.36129583 -3.6017266 0 0 Z " fill="#9750A7" transform="translate(87.3046875,193.87109375)"/>
<path d="M0 0 C0.66 0 1.32 0 2 0 C2.00364563 0.75088898 2.00729126 1.50177795 2.01104736 2.27542114 C2.04898281 9.3670046 2.10589794 16.45812601 2.18390274 23.54936409 C2.22333889 27.19471102 2.25554588 30.83981781 2.27099609 34.48535156 C2.28618879 38.00643076 2.32067882 41.52684959 2.36830902 45.04763412 C2.39027132 47.03825582 2.39247149 49.02906394 2.39434814 51.01980591 C2.40434368 59.79901162 2.40434368 59.79901162 7 67 C12.5247158 72.31631961 18.84067011 71.57922369 26.0625 71.53125 C27.32715088 71.5350769 28.59180176 71.53890381 29.89477539 71.54284668 C32.56485149 71.54556503 35.23345537 71.54023576 37.90332031 71.52148438 C41.31308273 71.49869429 44.7215856 71.51182661 48.13130188 71.53577423 C51.40007876 71.55376307 54.66870664 71.54114155 57.9375 71.53125 C59.76583374 71.54339539 59.76583374 71.54339539 61.63110352 71.55578613 C69.65629689 71.46713344 73.6110627 70.45054147 79.33691406 64.62060547 C81.95828448 58.91377585 81.60352355 53.27750634 81.609375 47.0703125 C81.62436957 45.71123292 81.6410994 44.35217148 81.65948486 42.99313354 C81.7030285 39.43232347 81.72312814 35.87175914 81.73822021 32.31072998 C81.75783863 28.67054796 81.79980309 25.03062953 81.83984375 21.390625 C81.91500444 14.26051735 81.96538116 7.13042918 82 0 C83.94487 0.76248169 83.94487 0.76248169 86 2 C86.70216132 5.02514339 87.13620304 7.79562928 87.45703125 10.8671875 C87.6939048 12.78787273 87.93449825 14.70810176 88.17822266 16.62792969 C88.30650452 17.6591394 88.43478638 18.69034912 88.56695557 19.75280762 C89.32592212 25.44393358 90.29947439 31.09812077 91.26171875 36.7578125 C91.45911652 37.93100037 91.65651428 39.10418823 91.8598938 40.31292725 C92.46673324 43.91735513 93.07670559 47.52124036 93.6875 51.125 C94.50670131 55.96047101 95.32266183 60.79647311 96.13671875 65.6328125 C96.41789803 67.28254562 96.41789803 67.28254562 96.70475769 68.96560669 C96.96051323 70.48527542 96.96051323 70.48527542 97.22143555 72.03564453 C97.37227097 72.92494659 97.52310638 73.81424866 97.67851257 74.73049927 C98 77 98 77 98 80 C61.04 80 24.08 80 -14 80 C-12.87446304 67.61909347 -12.87446304 67.61909347 -12.01611328 62.38623047 C-11.82566437 61.21486542 -11.63521545 60.04350037 -11.43899536 58.8366394 C-11.23483002 57.60922028 -11.03066467 56.38180115 -10.8203125 55.1171875 C-10.60688202 53.82233429 -10.39345154 52.52748108 -10.17355347 51.19338989 C-9.72414402 48.47171364 -9.27154508 45.75059055 -8.81689453 43.02978516 C-8.23878285 39.56722834 -7.67110559 36.10304986 -7.10609627 32.63833427 C-6.55917728 29.29683677 -6.00159387 25.95713904 -5.4453125 22.6171875 C-5.24519562 21.38571991 -5.04507874 20.15425232 -4.83889771 18.88546753 C-3.73112208 12.32585048 -2.30516433 6.2437452 0 0 Z " fill="#CF8C78" transform="translate(214,216)"/>
<path d="M0 0 C0.81984375 0.34933594 1.6396875 0.69867188 2.484375 1.05859375 C3.56203125 1.51363281 4.6396875 1.96867188 5.75 2.4375 C7.35101563 3.11619141 7.35101563 3.11619141 8.984375 3.80859375 C20.48524145 8.35232985 32.15627236 6.6482328 43.3046875 2.19140625 C44.88441348 1.49312158 46.45516716 0.77241642 48 0 C48 5.28 48 10.56 48 16 C35.15353858 22.78408637 35.15353858 22.78408637 29 23 C28.03449219 23.06058594 27.06898438 23.12117188 26.07421875 23.18359375 C18.27455534 23.48604838 12.04842831 22.3773719 5 19 C4.07832031 18.62875 3.15664062 18.2575 2.20703125 17.875 C0 16 0 16 -0.48828125 12.20703125 C-0.45512197 10.74139115 -0.39558979 9.27615861 -0.3125 7.8125 C-0.27866211 6.68811523 -0.27866211 6.68811523 -0.24414062 5.54101562 C-0.18529157 3.6931553 -0.09560938 1.84632333 0 0 Z " fill="#D08D78" transform="translate(232,185)"/>
<path d="M0 0 C0.66 0.33 1.32 0.66 2 1 C-1.96 4.96 -5.92 8.92 -10 13 C-10 8.41771462 -7.08388033 6.1816619 -4 3 C-1.625 1.0625 -1.625 1.0625 0 0 Z " fill="#AC69A9" transform="translate(57,197)"/>
</svg>
